<svg width="732" height="240" style="overflow: hidden;" aria-label="Un gráfico."><defs id="_ABSTRACT_RENDERER_ID_25"><clipPath id="_ABSTRACT_RENDERER_ID_26"><rect x="73" y="10" width="659" height="180"></rect></clipPath></defs><rect x="0" y="0" width="732" height="240" stroke="none" stroke-width="0" fill="#ffffff"></rect><g><rect x="73" y="10" width="659" height="180" stroke="#eeeeee" stroke-width="1" fill-opacity="0" fill="#ffffff"></rect><g clip-path="url(https://docs.google.com/forms/d/1SVAU995ndhTkWN-NhjEOLQMkINCu338BrdBV6cttGoM/edit#_ABSTRACT_RENDERER_ID_26)"><g><rect x="73" y="189" width="659" height="1" stroke="none" stroke-width="0" fill="#eeeeee"></rect><rect x="73" y="129" width="659" height="1" stroke="none" stroke-width="0" fill="#eeeeee"></rect><rect x="73" y="70" width="659" height="1" stroke="none" stroke-width="0" fill="#eeeeee"></rect><rect x="73" y="10" width="659" height="1" stroke="none" stroke-width="0" fill="#eeeeee"></rect><rect x="73" y="159" width="659" height="1" stroke="none" stroke-width="0" fill="#f8f8f8"></rect><rect x="73" y="100" width="659" height="1" stroke="none" stroke-width="0" fill="#f8f8f8"></rect><rect x="73" y="40" width="659" height="1" stroke="none" stroke-width="0" fill="#f8f8f8"></rect></g><g><rect x="99" y="189" width="81" height="0.5" stroke="none" stroke-width="0" fill="#673ab7"></rect><rect x="230" y="11" width="82" height="178" stroke="none" stroke-width="0" fill="#673ab7"></rect><rect x="362" y="130" width="81" height="59" stroke="none" stroke-width="0" fill="#673ab7"></rect><rect x="493" y="130" width="82" height="59" stroke="none" stroke-width="0" fill="#673ab7"></rect><rect x="625" y="189" width="81" height="0.5" stroke="none" stroke-width="0" fill="#673ab7"></rect></g><g><rect x="73" y="189" width="659" height="1" stroke="none" stroke-width="0" fill="#333333"></rect></g><g><rect x="139" y="177" width="1" height="12" stroke="none" stroke-width="0" fill="#999999"></rect><rect x="271" y="11" width="1" height="0" stroke="none" stroke-width="0" fill="#999999"></rect><rect x="402" y="130" width="1" height="0" stroke="none" stroke-width="0" fill="#999999"></rect><rect x="534" y="130" width="1" height="0" stroke="none" stroke-width="0" fill="#999999"></rect><rect x="665" y="177" width="1" height="12" stroke="none" stroke-width="0" fill="#999999"></rect></g></g><g></g><g><g><text text-anchor="middle" x="139.3" y="207.2" font-family="Arial" font-size="12" stroke="none" stroke-width="0" fill="#222222">1</text></g><g><text text-anchor="middle" x="270.9" y="207.2" font-family="Arial" font-size="12" stroke="none" stroke-width="0" fill="#222222">2</text></g><g><text text-anchor="middle" x="402.5" y="207.2" font-family="Arial" font-size="12" stroke="none" stroke-width="0" fill="#222222">3</text></g><g><text text-anchor="middle" x="534.0999999999999" y="207.2" font-family="Arial" font-size="12" stroke="none" stroke-width="0" fill="#222222">4</text></g><g><text text-anchor="middle" x="665.6999999999999" y="207.2" font-family="Arial" font-size="12" stroke="none" stroke-width="0" fill="#222222">5</text></g><g><text text-anchor="end" x="61" y="193.7" font-family="Arial" font-size="12" stroke="none" stroke-width="0" fill="#444444">0</text></g><g><text text-anchor="end" x="61" y="134.0333" font-family="Arial" font-size="12" stroke="none" stroke-width="0" fill="#444444">1</text></g><g><text text-anchor="end" x="61" y="74.36670000000001" font-family="Arial" font-size="12" stroke="none" stroke-width="0" fill="#444444">2</text></g><g><text text-anchor="end" x="61" y="14.7" font-family="Arial" font-size="12" stroke="none" stroke-width="0" fill="#444444">3</text></g></g><g><g><g><rect x="117.5" y="164.5" width="44" height="14" stroke="none" stroke-width="0" fill-opacity="0" fill="#ffffff"></rect><g><text text-anchor="middle" x="139" y="175.2" font-family="Arial" font-size="12" stroke="#ffffff" stroke-width="3" fill="#202124" aria-hidden="true">0 (0&nbsp;%)</text><text text-anchor="middle" x="139" y="175.2" font-family="Arial" font-size="12" stroke="none" stroke-width="0" fill="#202124">0 (0&nbsp;%)</text></g><rect x="119.5" y="165" width="39" height="12" stroke="none" stroke-width="0" fill-opacity="0" fill="#ffffff"></rect></g></g><g><g><text text-anchor="middle" x="271" y="23.2" font-family="Arial" font-size="12" stroke="none" stroke-width="0" fill="#ffffff">3 (60&nbsp;%)</text><rect x="248.5" y="13" width="45" height="12" stroke="none" stroke-width="0" fill-opacity="0" fill="#ffffff"></rect></g></g><g><g><text text-anchor="middle" x="402" y="142.2" font-family="Arial" font-size="12" stroke="none" stroke-width="0" fill="#ffffff">1 (20&nbsp;%)</text><rect x="379.5" y="132" width="45" height="12" stroke="none" stroke-width="0" fill-opacity="0" fill="#ffffff"></rect></g></g><g><g><text text-anchor="middle" x="534" y="142.2" font-family="Arial" font-size="12" stroke="none" stroke-width="0" fill="#ffffff">1 (20&nbsp;%)</text><rect x="511.5" y="132" width="45" height="12" stroke="none" stroke-width="0" fill-opacity="0" fill="#ffffff"></rect></g></g><g><g><rect x="643.5" y="164.5" width="44" height="14" stroke="none" stroke-width="0" fill-opacity="0" fill="#ffffff"></rect><g><text text-anchor="middle" x="665" y="175.2" font-family="Arial" font-size="12" stroke="#ffffff" stroke-width="3" fill="#202124" aria-hidden="true">0 (0&nbsp;%)</text><text text-anchor="middle" x="665" y="175.2" font-family="Arial" font-size="12" stroke="none" stroke-width="0" fill="#202124">0 (0&nbsp;%)</text></g><rect x="645.5" y="165" width="39" height="12" stroke="none" stroke-width="0" fill-opacity="0" fill="#ffffff"></rect></g></g></g></g><g></g></svg>
